<svg width="100%" height="100%" viewBox="0 0 652 186" version="1.1" xmlns="http://www.w3.org/2000/svg" xmlns:xlink="http://www.w3.org/1999/xlink" xml:space="preserve" xmlns:serif="http://www.serif.com/" style="fill-rule:evenodd;clip-rule:evenodd;stroke-linejoin:round;stroke-miterlimit:2;">
    <g id="logo" transform="matrix(1,0,0,0.679707,-339.107,-563.142)">
        <rect x="339.107" y="828.508" width="651.967" height="273.253" style="fill:none;"/>
        <g transform="matrix(4.16667,0,0,6.1301,585.897,863.103)">
            <path d="M16,32C24.837,32 32,24.837 32,16C32,7.163 24.837,0 16,0C7.163,0 0,7.163 0,16C0,24.837 7.163,32 16,32Z" style="fill:rgb(0,152,234);fill-rule:nonzero;"/>
        </g>
        <g transform="matrix(4.16667,0,0,6.1301,585.897,863.103)">
            <path d="M21.464,8.93L10.536,8.93C8.527,8.93 7.254,11.097 8.265,12.85L15.008,24.538C15.448,25.301 16.551,25.301 16.991,24.538L23.736,12.849C24.746,11.1 23.472,8.93 21.464,8.93ZM15.003,21.032L13.534,18.19L9.99,11.852C9.937,11.759 9.909,11.653 9.909,11.546C9.909,11.206 10.188,10.927 10.528,10.927C10.53,10.927 10.533,10.927 10.535,10.927L15,10.927L15,21.034L15.002,21.032L15.003,21.032ZM22.006,11.851L18.464,18.191L16.995,21.032L16.995,10.925L21.462,10.925C21.952,10.925 22.24,11.445 22.006,11.851Z" style="fill:white;fill-rule:nonzero;"/>
        </g>
        <g transform="matrix(4.16667,0,0,6.1301,217.646,863.103)">
            <path d="M42.197,24.738L45.685,24.738L45.685,12.575L50.508,12.575L50.508,9.262L37.374,9.262L37.374,12.575L42.197,12.575L42.197,24.738ZM58.89,25C63.293,25 66.89,21.403 66.89,17C66.89,12.597 63.293,9 58.89,9C54.465,9 50.89,12.597 50.89,17C50.89,21.403 54.465,25 58.89,25ZM58.89,21.643C56.361,21.643 54.377,19.507 54.377,17C54.377,14.493 56.361,12.357 58.89,12.357C61.397,12.357 63.38,14.493 63.38,17C63.38,19.507 61.397,21.643 58.89,21.643ZM82.806,24.738L82.806,9.262L79.318,9.262L79.318,18.809L71.798,9.262L68.81,9.262L68.81,24.738L72.276,24.738L72.276,15.168L79.819,24.738L82.806,24.738Z" style="fill-rule:nonzero;stroke:white;stroke-width:0.24px;"/>
        </g>
        <g transform="matrix(1.76879,0,0,2.60228,-846.215,-1440.83)">
            <path d="M910.389,931.217L916.736,931.217L920.106,935.538L923.109,939.054L929.285,946.744L922.425,946.744L918.323,941.569L916.053,938.688L910.389,931.217ZM913.172,944.279C909.917,944.279 906.995,943.522 904.407,942.008C901.819,940.494 899.781,938.338 898.292,935.538C896.802,932.739 896.058,929.41 896.058,925.553C896.058,921.663 896.802,918.314 898.292,915.507C899.781,912.699 901.819,910.542 904.407,909.037C906.995,907.531 909.917,906.779 913.172,906.779C916.427,906.779 919.341,907.531 921.912,909.037C924.484,910.542 926.518,912.699 928.016,915.507C929.513,918.314 930.262,921.663 930.262,925.553C930.262,929.427 929.513,932.763 928.016,935.563C926.518,938.362 924.484,940.515 921.912,942.02C919.341,943.526 916.427,944.279 913.172,944.279ZM913.172,937.662C915.044,937.662 916.696,937.19 918.128,936.246C919.56,935.302 920.683,933.927 921.497,932.12C922.311,930.314 922.718,928.125 922.718,925.553C922.718,922.965 922.311,920.764 921.497,918.949C920.683,917.134 919.56,915.755 918.128,914.811C916.696,913.867 915.044,913.395 913.172,913.395C911.3,913.395 909.644,913.867 908.204,914.811C906.763,915.755 905.636,917.134 904.822,918.949C904.009,920.764 903.602,922.965 903.602,925.553C903.602,928.125 904.009,930.314 904.822,932.12C905.636,933.927 906.763,935.302 908.204,936.246C909.644,937.19 911.3,937.662 913.172,937.662Z" style="fill-rule:nonzero;"/>
            <path d="M949.793,944.279C946.782,944.279 944.153,943.721 941.907,942.606C939.661,941.491 937.92,939.937 936.683,937.943C935.446,935.949 934.827,933.642 934.827,931.022L934.827,907.34L942.2,907.34L942.2,930.411C942.2,931.844 942.514,933.109 943.14,934.208C943.767,935.306 944.65,936.173 945.789,936.808C946.928,937.443 948.271,937.76 949.817,937.76C951.347,937.76 952.682,937.443 953.821,936.808C954.961,936.173 955.844,935.306 956.47,934.208C957.097,933.109 957.41,931.844 957.41,930.411L957.41,907.34L964.783,907.34L964.783,931.022C964.783,933.659 964.165,935.97 962.928,937.955C961.691,939.941 959.949,941.491 957.703,942.606C955.457,943.721 952.82,944.279 949.793,944.279Z" style="fill-rule:nonzero;"/>
            <rect x="970.399" y="907.34" width="7.495" height="36.377" style="fill-rule:nonzero;"/>
            <path d="M982.386,943.717L982.386,938.2L998.182,918.18C999.126,917.008 1000.11,915.836 1001.14,914.664C1002.16,913.492 1003.2,912.321 1004.26,911.149L1005.07,913.663C1003.5,913.696 1001.94,913.712 1000.38,913.712L982.801,913.712L982.801,907.34L1011.02,907.34L1011.02,912.858L995.521,932.633C994.544,933.854 993.535,935.07 992.493,936.283C991.452,937.496 990.386,938.712 989.295,939.933L988.489,937.394C990.052,937.361 991.614,937.345 993.177,937.345L1011.17,937.345L1011.17,943.717L982.386,943.717Z" style="fill-rule:nonzero;"/>
        </g>
    </g>
</svg>
